# xmcd
# Track frame offsets:
# 150
# 16527
# 35457
# 51220
# 66172
# 78725
# 92291
# 103847
# 117329
# 130454
# 144099
# 155646
# 168615
# 182883
# 200098
# 219323
# 229746
#
# Disc length: 3161 seconds
# Revision: 0
# Processed by: cddbd v1.5.1PL2 Copyright (c) Steve Scherf et al.
# Submitted via: VisiTrax 2.9.10.228 - For more info visit www.synapsa.com
#
DISCID=eb0c5711
DTITLE=Jennings, Waylon - Waylon Jennings: Greatest Hits and The Outlaws
DYEAR=1979
DGENRE=Country
TTITLE0=Lonesome, On'ry and Mean
TTITLE1=I've Always Been Crazy
TTITLE2=Honky Tonk Heroes
TTITLE3=Luckenbach, Texas (Back to the Basics of Love)
TTITLE4=I'm a Ramblin' Man
TTITLE5=Amanda
TTITLE6=Mamas Don't Let Your Babies Grow up to Be Cowboys
TTITLE7=A Good Hearted Woman [Version] [Version]
TTITLE8=Are You Sure Hank Done It This Way
TTITLE9=My Heroes Have Always Been Cowboys
TTITLE10=Honky Tonk Heroes
TTITLE11=I'm Looking for Blue Eyes
TTITLE12=You Mean to Say
TTITLE13=Suspicious Minds
TTITLE14=Good Hearted Woman
TTITLE15=Heaven or Hell
TTITLE16=Me and Paul
EXTD=JEK  RCA BMG  8506-2-RRE c.79 .1988  1-9 and The Outlaws #10-17.  I pu
EXTD=t 2 cds onto one disk.
EXTT0=
EXTT1=
EXTT2=
EXTT3=
EXTT4=
EXTT5=
EXTT6=
EXTT7=
EXTT8=
EXTT9=
EXTT10=
EXTT11=
EXTT12=
EXTT13=
EXTT14=
EXTT15=
EXTT16=
PLAYORDER=
